<?xml version="1.0" encoding="UTF-8"?>
<svg id="_レイヤー_1" xmlns="http://www.w3.org/2000/svg" version="1.1" viewBox="0 0 300 60">
  <!-- Generator: Adobe Illustrator 29.8.1, SVG Export Plug-In . SVG Version: 2.1.1 Build 2)  -->
  <defs>
    <style>
      .st0 {
        fill: #38a3a5;
      }

      .st1, .st2 {
        isolation: isolate;
      }

      .st3, .st2 {
        fill: #0084c2;
      }

      .st4 {
        fill: #fbb040;
      }

      .st2 {
        font-family: HiraKakuPro-W6-83pv-RKSJ-H, 'Hiragino Kaku Gothic Pro';
        font-size: 24px;
        letter-spacing: -.08em;
      }
    </style>
  </defs>
  <g class="st1">
    <g class="st1">
      <text class="st2" transform="translate(53.89 32.47)"><tspan x="0" y="0">旅するリゾートバイト女子</tspan></text>
    </g>
  </g>
  <g>
    <path class="st3" d="M55.26,41.03c.8-.11,1.74-.19,2.76-.19,1.85,0,3.18.43,4.03,1.24.81.75,1.25,1.72,1.25,2.99s-.43,2.43-1.33,3.3c-.91.88-2.43,1.36-4.36,1.36-.94,0-1.7-.03-2.37-.1v-8.6h.02ZM56.44,48.74c.34.05.84.06,1.38.06,2.85,0,4.24-1.52,4.24-3.69.02-2.02-1.31-3.35-4.02-3.35-.72,0-1.25.06-1.61.14v6.83h.01Z"/>
    <path class="st3" d="M65.41,45.44c0-.81-.01-1.45-.05-2.06h1.04l.04,1.31h.04c.32-.92,1.07-1.47,1.89-1.47.13,0,.24,0,.36.04v1.09c-.14-.03-.27-.04-.45-.04-.86,0-1.46.62-1.63,1.51-.03.16-.05.35-.05.52v3.31h-1.18v-4.21h-.01Z"/>
    <path class="st3" d="M71.07,46.76c.03,1.42,1.08,2.13,2.37,2.13.94,0,1.49-.16,1.97-.35l.22.83c-.41.18-1.17.43-2.32.43-2.06,0-3.35-1.3-3.35-3.17s1.2-3.42,3.23-3.42c2.3,0,2.84,1.95,2.84,3.02,0,.24-.01.41-.04.53h-4.92ZM74.85,45.92c0-.54-.24-1.86-1.78-1.86-1.33,0-1.88,1.08-1.99,1.86h3.77Z"/>
    <path class="st3" d="M81.91,49.65l-.11-.83h-.03c-.37.5-1.12.99-2.14.99-1.41,0-2.05-.96-2.05-1.81,0-1.5,1.37-2.39,4.13-2.36v-.11c0-.4-.12-1.46-1.57-1.45-.65,0-1.34.19-1.83.52l-.27-.78c.61-.38,1.43-.59,2.27-.59,2.14,0,2.58,1.47,2.58,2.68v2.22c0,.55.03,1.09.11,1.52h-1.09ZM81.72,46.47c-1.47-.03-2.95.23-2.95,1.38,0,.72.52,1.09,1.17,1.09.95,0,1.52-.58,1.73-1.09.04-.12.06-.25.06-.36v-1.03h-.01Z"/>
    <path class="st3" d="M85.43,45.1c0-.63-.02-1.19-.05-1.72h1.03l.06,1.09h.03c.38-.63.99-1.24,2.17-1.24.94,0,1.64.59,1.91,1.36h.02c.22-.37.46-.65.74-.85.42-.32.86-.51,1.55-.51.83,0,2.26.52,2.26,2.89v3.53h-1.16v-3.42c0-1.35-.56-2.04-1.52-2.04-.74,0-1.29.52-1.5,1.06-.06.16-.11.37-.11.57v3.83h-1.16v-3.64c0-1.1-.55-1.82-1.45-1.82-.81,0-1.37.64-1.59,1.18-.06.17-.1.37-.1.57v3.71h-1.16v-4.55h.03Z"/>
    <path class="st3" d="M103.38,40.91h1.18v5.7c0,2.45-1.25,3.2-2.84,3.2-.48,0-1.08-.11-1.39-.24l.19-.95c.27.11.66.21,1.11.21,1.1,0,1.75-.52,1.75-2.33v-5.57h0v-.02Z"/>
    <path class="st3" d="M113.41,46.44c0,2.29-1.77,3.37-3.46,3.37-1.89,0-3.34-1.31-3.34-3.23,0-2.03,1.5-3.35,3.45-3.35s3.35,1.39,3.35,3.21ZM107.82,46.54c0,1.49.98,2.4,2.17,2.4s2.21-.88,2.21-2.44c0-1.09-.66-2.39-2.16-2.39s-2.21,1.17-2.21,2.43c0,0-.01,0,0,0Z"/>
    <path class="st3" d="M115.48,49.65c.03-.45.05-1.05.05-1.65v-7.62h1.18v4.11h.02c.42-.74,1.24-1.25,2.41-1.25,1.75,0,2.96,1.35,2.95,3.2,0,2.25-1.59,3.38-3.13,3.38-.98,0-1.84-.35-2.39-1.25h-.02l-.05,1.1h-1.03.01v-.02ZM116.71,47.04c0,.14.02.28.05.42.21.75.96,1.42,1.97,1.42,1.33,0,2.17-.93,2.17-2.41,0-1.26-.77-2.32-2.13-2.32-.88,0-1.72.53-1.99,1.49-.04.14-.08.29-.08.49v.92h0Z"/>
    <path class="st3" d="M123.11,51.25c.29-.79.64-2.16.79-3.13l1.31-.13c-.31,1.12-.89,2.56-1.25,3.18l-.84.09h-.01Z"/>
    <path class="st3" d="M131.97,40.91v8.73h-1.18v-8.73h1.18Z"/>
    <path class="st3" d="M134.45,48.45c.39.24,1.06.49,1.68.49.92,0,1.32-.43,1.32-.94,0-.57-.38-.84-1.29-1.12-1.23-.37-1.81-1.02-1.79-1.77,0-1.01.84-1.87,2.31-1.87.69,0,1.3.17,1.68.41l-.29.85c-.24-.15-.77-.4-1.44-.4-.72,0-1.11.39-1.11.88,0,.55.44.78,1.33,1.07,1.2.38,1.75.92,1.76,1.87,0,1.06-.86,1.9-2.5,1.9-.77,0-1.44-.18-1.94-.46l.29-.9h0Z"/>
    <path class="st3" d="M140.77,40.37h1.18v9.29h-1.18v-9.29Z"/>
    <path class="st3" d="M148.38,49.65l-.11-.83h-.03c-.37.5-1.12.99-2.14.99-1.41,0-2.05-.96-2.05-1.81,0-1.5,1.37-2.39,4.13-2.36v-.11c0-.4-.12-1.46-1.57-1.45-.65,0-1.34.19-1.83.52l-.27-.78c.61-.38,1.43-.59,2.27-.59,2.14,0,2.58,1.47,2.58,2.68v2.22c0,.55.03,1.09.11,1.52h-1.09ZM148.19,46.47c-1.47-.03-2.95.23-2.95,1.38,0,.72.52,1.09,1.17,1.09.95,0,1.52-.58,1.73-1.09.04-.12.06-.25.06-.36v-1.03h0Z"/>
    <path class="st3" d="M151.89,45.1c0-.63-.02-1.19-.05-1.72h1.05l.06,1.12h.03c.32-.62,1.12-1.28,2.28-1.28.85,0,2.44.48,2.44,2.84v3.58h-1.18v-3.47c0-1.1-.46-1.99-1.64-1.99-.85,0-1.5.59-1.73,1.22-.05.13-.09.34-.09.52v3.72h-1.18v-4.55h0Z"/>
    <path class="st3" d="M166.26,40.37v7.62c0,.61.02,1.2.05,1.65h-1.07l-.05-1.18h-.02c-.4.79-1.25,1.34-2.4,1.34-1.68,0-2.98-1.33-2.98-3.18,0-2.05,1.41-3.41,3.12-3.41,1.12,0,1.85.53,2.14,1.03h.02v-3.88h1.19ZM165.07,45.99c0-.15-.02-.36-.05-.51-.22-.75-.91-1.34-1.89-1.34-1.3,0-2.14.99-2.14,2.41,0,1.25.74,2.31,2.13,2.31.92,0,1.7-.63,1.9-1.47.04-.16.06-.32.06-.51v-.89s0,0,0,0Z"/>
    <path class="st3" d="M172.46,40.91h1.18v7.75h4.16v.98h-5.34v-8.73Z"/>
    <path class="st3" d="M181.02,41.56c0,.39-.28.72-.77.72-.44,0-.72-.35-.72-.72s.3-.72.75-.72.74.32.75.72h0ZM179.69,49.65v-6.27h1.18v6.27h-1.18Z"/>
    <path class="st3" d="M183.56,49.65v-5.37h-.9v-.9h.9v-.27c0-.95.24-1.78.79-2.3.44-.41,1.05-.59,1.61-.59.43,0,.81.1,1.04.19l-.14.91c-.19-.09-.43-.15-.79-.15-1.05,0-1.33.89-1.33,1.9v.31h1.63v.9h-1.63v5.37h-1.18Z"/>
    <path class="st3" d="M188.52,46.76c.03,1.42,1.08,2.13,2.37,2.13.94,0,1.49-.16,1.97-.35l.22.83c-.41.18-1.17.43-2.32.43-2.06,0-3.35-1.3-3.35-3.17s1.2-3.42,3.23-3.42c2.3,0,2.84,1.95,2.84,3.02,0,.24,0,.41-.04.53h-4.92ZM192.31,45.92c0-.54-.24-1.86-1.78-1.86-1.33,0-1.88,1.08-1.99,1.86h3.77Z"/>
    <path class="st3" d="M195.05,48.98c0-.49.34-.84.81-.84s.8.36.8.84c0,.45-.32.83-.81.83s-.81-.38-.8-.83Z"/>
  </g>
  <g>
    <circle class="st4" cx="20.83" cy="41.35" r="6.18"/>
    <g>
      <path class="st0" d="M44.37,13l-.6-1.05,2.63,1.82-.75-1.63,2.74,2.23-1.23-2.17,2.7,2.24-1.14-1.8,2.94,1.99-1.14-1.56c1.39.26,4.93,1.48,4.93,1.48-5.26-4.54-9.89-4.85-12.88-4.29l-.66-.12,2.84-.71-2.18-.22,2.84-.68-1.87-.11,2.74-.96h-1.67c.77-.77,3.16-2.48,3.16-2.48-3.66.81-5.84,2.28-7.14,3.81,0-2.28-.97-5.38-5-8.59,0,0,1.41,2.58,1.75,3.61l-1.49-.73,2.04,2.07-1.73-.72,2.24,1.87-2.05-.76,2.24,1.89-1.53-.44,1.85,1.84-1.27-.46,1.05,1.12c-2.28-1.97-6.73-4.27-14.11-2.33,0,0,3.71.45,5.08.82l-1.7.9,3.51-.5-1.83,1.12,3.41-.82-2.07,1.41,3.43-.8-1.39,1.13,3.15-.47-1.23.85c-4.13,0-10.02,1.54-15.01,8.68,0,0,4.13-2.44,5.85-3.12l-.86,2.3,3.04-3.31-.76,2.65,2.63-3.58-.66,2.8c-2.18,2.34-3.99,5.87-4.38,11.24,0,0,2.3-3.98,3.45-5.33l.45,2.45.92-4.29.71,2.71.42-4.35.97,3.15.47-4.37.92,2.23.78-3.87.61,1.94.87-3.47.96.98,1.14-2.66.44.85.32-1.7h-.02l.46-.35h0c-.76,2.24-2.51,7.54-4.31,13.57l.85.32-.88-.2c-.54,1.78-1.06,3.62-1.58,5.46l1.93.75-2-.46c-.92,3.32-1.77,6.64-2.4,9.64l2.1.81-2.18-.5c-.02.1-.04.21-.06.31-.06.29-.11.57-.17.85.36.14.71.31,1.01.54.47.34.86.76,1.17,1.28l.04.06c.04.06.07.12.1.19v.02l.02.02s.04.07.05.11c.5-.41,1-.82,1.52-1.22v-1.08c.02-1.58.14-3.4.34-5.44l-2.33-.54,2.36.2c.25-2.35.63-5,1.21-7.99l-1.27-.3,1.31.11c.27-1.42.6-2.92.96-4.49l-.78-.19.81.07c.73-3.15,1.65-6.61,2.81-10.38h0l.14-.05-.04,2.14,1.27-.47-.62,3.55,1.33-1.49-.86,3.86,1.73-1.62-1.36,4.18,2.17-2.43-1.39,4.14,1.74-2.17-.92,4.31,1.39-2.04c.49,1.73.95,6.36.95,6.36,2.07-5.7,1.54-10.08.17-13.29l.58-1.77.83,4.38.71-3.14.78,4.37.47-2.71,1.28,4.31.24-2.45c1.26,1.37,3.89,5.36,3.89,5.36-1.33-8.46-5.8-12.43-9.48-14.28l.07.05h-.03ZM42.09,12.05v-.31l1.19.76c-.41-.17-.81-.32-1.19-.45ZM37.85,10.49l-.26.5c-.7-.11-1.52-.19-2.43-.2l2.68-.3h0ZM34.09,13.81c-.2.09-.39.17-.58.27l.71-.78-.12.52h0ZM29.92,16.52l1.9-2.55-.16,1.16c-.58.4-1.18.86-1.75,1.39h.01ZM35.75,13.21l.6-.61.11.41c-.22.05-.46.12-.71.2ZM41.92,14.24l.26-.29.3.91c-.19-.21-.37-.42-.56-.61h0ZM43.61,16.3l.19-.8.58,2.04c-.25-.44-.5-.86-.77-1.24Z"/>
      <path class="st0" d="M9.24,34.49l-.93-2.7,1.38,1.53-.91-2.72.54.5c.21,2.26,1.28,4.95,4.31,7.57,0,0-1.19-2.74-1.48-3.86l1.43.7-1.87-2.13,1.65.66-2.09-1.89,1.98.68-2.08-1.92,1.48.36-1.7-1.89,1.22.42-1.47-1.79.86-.14-.66-1.12.07-.02c3.42,2.25,6.59,4.79,9.43,7.79.22-.15.34-.24.56-.39-.2.19-.29.27-.49.46.98,1.05,1.93,2.15,2.81,3.28.37-.22.57-.34.95-.56-.34.27-.5.42-.85.7,1.01,1.34,1.95,2.71,2.81,4.14.15.25.3.5.45.76h.05l.06-.04c.09-.02.17-.05.27-.07.09-.02.17-.04.25-.06h.05c.1-.04.2-.05.27-.05h.07c.09,0,.22-.04.39-.04h.34c.1,0,.2,0,.31,0,.16,0,.32.04.5.06-.21-.31-.44-.62-.66-.93-.6-.82-1.21-1.62-1.84-2.43-.55.41-.82.62-1.37,1.03.49-.5.72-.75,1.19-1.26-1.18-1.41-2.4-2.75-3.67-4.07-.22.2-.34.3-.56.51.19-.24.29-.36.47-.6-3.14-3.09-6.51-5.89-10.17-8.27l.14-.76,1.72,1.54-.37-1.26,1.8,1.78-.31-1.52,1.82,2.17-.61-2.03,1.79,2.18-.6-1.7,2.03,1.97-.65-1.47c1.09.31,3.76,1.61,3.76,1.61-2.85-3.63-5.89-4.63-8.29-4.67l-.6-.49,2.82.51-1.72-1.16,2.8.54-1.52-.91,2.89.22-1.42-.71c1.11-.44,4.12-1.09,4.12-1.09-4.98-1.07-8.27.36-10.3,1.98l-.57.1,1.68-1.18-1.14.09,1.95-1.16-1.58.26,1.95-1.13-1.34.29,1.85-1.33-1.19.34c.47-.78,2-2.64,2-2.64-4.33,2.39-5.36,5.46-5.55,7.38l-.31.2.14-1.52-.46.73.21-1.67-.61.82.4-1.84-.75,1.19.41-1.83-.6,1.05.22-1.85-.47.96c-.22-.67-.54-2.53-.54-2.53-.78,3.22-.05,5.19.85,6.33-1.27-.26-2.95-.15-5.13.88,0,0,1.89-.07,2.59,0l-.85.66,1.77-.6-.91.8,1.72-.77-1.02.97,1.73-.76-.29.32c-1.73.9-3.97,2.87-4.85,7.27,0,0,1.31-2.02,1.92-2.7l.04,1.24.71-2.18.14,1.37.49-2.2.22,1.59.51-2.21.2.86c-1.11,2.24-1.72,5.47-.12,9.78,0,0,.22-3.07.5-4.24l.91,1.31-.63-2.82,1.12,1.37.02.06h.01ZM9.31,29.09l.05.05v.1l-.04-.15h-.01ZM8.76,27.09l.17-.47.11.15c-.09.1-.19.21-.27.32,0,0-.01,0,0,0ZM10.86,26.63s.04.02.05.04c0,0,.01,0,.02.01h0l-.02.04s-.05-.09-.05-.09ZM7.82,28.44l.32-1.05.06.42c-.14.2-.26.4-.39.62h0Z"/>
      <path class="st3" d="M47.34,46c-1.38-4.4-6.08-5.23-9.82-3.38-2.66,1.32-4.82,3.43-7.09,5.29-2.31,1.88-4.84,3.52-7.58,4.72-4.4,1.92-8.98,2.34-13.7,1.99,7.02,4.34,16.08,2.21,22.3-2.53,1.48-1.13,2.81-2.43,4.16-3.73,1.21-1.18,4.12-5.44,8.61-4.38,1.24.3,2.25,1.19,3.14,2.08v-.04h0v-.02Z"/>
      <path class="st3" d="M21.92,47.08c-3,3-7.75,4.04-11.78,4.01,1.92,1.36,4.35,1.88,6.67,1.56,1.12-.16,2.21-.51,3.21-1.07,1.11-.62,1.93-1.56,2.75-2.51.6-.7,1.17-1.41,1.8-2.07,1.07-1.13,2.34-2.17,3.86-2.59,1.64-.46,2.44.72,3.42,1.8-1.72-6.13-8.25-.82-9.93.86h0Z"/>
    </g>
  </g>
</svg>